<?xml version="1.0" encoding="utf-8"?>
<svg xmlns="http://www.w3.org/2000/svg" width="50" height="50" viewBox="0 0 512 512">
  <path fill="#EF4823" d="M335.4,213c-16.8-25.6-34.9-50.2-54.2-73.9c-17.3-21.3-35.1-42.7-54-62.7c-0.8,2.3-2.9,3.7-5,4c-20,54.4-44.7,106.9-65.6,161c-8.8,22.9-16.9,45.9-18.6,70.6c-1.4,20.6,1.6,41.7,10.9,60.3c41.3,82.7,183.8,83.9,220.4-3.6C391.6,315.5,364.7,257.7,335.4,213z M225,296c-1.4,12.7-6,25.8-15.8,34.5c-7.4,6.6-18.2,9.2-27.2,4.1c-24.3-13.7-18.9-45.3-10.8-67c2.7-7.1,5.7-14.2,8.3-21.3c2.7-7.3,4.7-15.1,6.9-22.6c4.7-15.5,9.5-31.1,14.2-46.6c1.7-5.5,9.1-5.1,10.7-1.2c0.8,0.4,1.6,1.1,2.2,2.2c6.6,11.9,8.3,25.1,8.4,38.5c0.1,13.3,0,26.6,1.3,39.8C224.6,269.6,226.5,282.8,225,296z" />
  <path fill="#D6E5E5" d="M212.6,260.4c-1.3-12.7-1.6-25.3-1.6-38c0-10.2-0.1-21-3.4-30.8c-7.6,25.5-15.1,51-24.7,75.9c-4.9,12.6-10.9,28.4-6.8,42c2.3,7.7,8.5,18.1,18,16.7c11.8-1.7,17.8-17.4,19.4-27.6C215.6,285.9,213.9,273.1,212.6,260.4z" />
  <path d="M361.7,235.6c-13.9-26-31.3-50.3-48.9-73.9c-18.1-24.2-37.5-47.4-57.5-70.1c-8.8-10-17.5-20.1-26.7-29.6c-2.1-2.1-5.9-1.6-7.8,0.5c-1.4,1.7-2.4,3.4-3.1,5.3c-1.6,0.3-3.1,1.2-3.7,2.9c-21.5,59.7-49.1,117.1-71.4,176.5c-16.5,43.8-24.6,93-0.4,135.7c22.8,40.4,70,60.9,114.8,62.3c43.6,1.4,88-17.4,112.6-54.2C402.1,342.6,387.1,283.2,361.7,235.6z M369.3,368.7c-36.6,87.4-179.1,86.3-220.4,3.6c-9.3-18.6-12.3-39.7-10.9-60.3c1.6-24.7,9.7-47.7,18.6-70.6c20.9-54.1,45.6-106.6,65.6-161c2.2-0.3,4.3-1.7,5-4c18.9,20,36.7,41.3,54,62.7c19.2,23.7,37.4,48.4,54.2,73.9C364.7,257.7,391.6,315.5,369.3,368.7z" />
  <path d="M223.3,256.5c-1.3-13.3-1.2-26.5-1.3-39.8c-0.1-13.4-1.8-26.6-8.4-38.5c-0.6-1.1-1.4-1.8-2.2-2.2c-1.6-3.9-9.1-4.2-10.7,1.2c-4.7,15.5-9.5,31.1-14.2,46.6c-2.3,7.5-4.2,15.2-6.9,22.6c-2.7,7.1-5.7,14.2-8.3,21.3c-8.1,21.7-13.4,53.2,10.8,67c9,5.1,19.9,2.5,27.2-4.1c9.7-8.7,14.4-21.8,15.8-34.5C226.5,282.8,224.6,269.6,223.3,256.5z M213.6,298.6c-1.6,10.2-7.6,25.9-19.4,27.6c-9.6,1.4-15.7-9-18-16.7c-4.2-13.6,1.9-29.4,6.8-42c9.6-24.8,17.1-50.4,24.7-75.9c3.3,9.8,3.4,20.5,3.4,30.8c0,12.7,0.3,25.3,1.6,38C213.9,273.1,215.6,285.9,213.6,298.6z" />
</svg>